<?xml version="1.0" encoding="utf-8"?>
<!-- Generator: Adobe Illustrator 16.0.0, SVG Export Plug-In . SVG Version: 6.00 Build 0)  -->
<!DOCTYPE svg PUBLIC "-//W3C//DTD SVG 1.1//EN" "http://www.w3.org/Graphics/SVG/1.1/DTD/svg11.dtd">
<svg version="1.1" id="Layer_1" xmlns="http://www.w3.org/2000/svg" xmlns:xlink="http://www.w3.org/1999/xlink" x="0px" y="0px"
	 width="179.999px" height="90.621px" viewBox="0 0 179.999 90.621" enable-background="new 0 0 179.999 90.621"
	 xml:space="preserve">
<g>
	<path fill-rule="evenodd" clip-rule="evenodd" fill="#029999" d="M55.48,0.052c0.559-0.148,1.129,0.05,1.663,0.214
		c0.809,0.12,1.643,0.204,2.392,0.558c0.361,0.168,0.659,0.434,0.955,0.694c0.45,0.391,1.034,0.553,1.583,0.75
		c0.628,0.238,1.31,0.016,1.956,0.124c0.141,0.016,0.286,0.122,0.26,0.279c-0.001,1.318,0.459,2.57,0.919,3.785
		c0.366,0.95,0.704,1.915,0.9,2.917c0.197,1.014,0.45,2.017,0.671,3.026c0.289,1.271,0.559,2.547,0.888,3.809
		c0.333,1.272,0.671,2.546,0.892,3.843c0.168,0.877,0.163,1.787,0.482,2.631c0.917,2.496,0.982,5.207,1.874,7.709
		c0.168,0.477,0.321,0.96,0.538,1.418c0.229,0.493,0.706,0.827,0.891,1.346c0.186,0.514,0.122,1.072,0.104,1.607
		c-0.045,1.109,0.028,2.22,0.16,3.321c0.097,0.753,0.162,1.52,0.418,2.24c0.203,0.579,0.324,1.183,0.427,1.787
		c0.106,0.576,0.256,1.166,0.618,1.64c0.334,0.432,0.473,0.968,0.726,1.445c0.227,0.441,0.483,0.865,0.709,1.307
		c0.194,0.394,0.638,0.558,1.025,0.695c0.45,0.154,0.943,0.252,1.411,0.121c0.695-0.171,1.283-0.678,2.018-0.709
		c0.155-0.024,0.207,0.152,0.23,0.269c0.085,0.334-0.181,0.614-0.405,0.822c-0.427,0.373-1.027,0.363-1.558,0.422
		c-0.55,0.034-1.106,0.168-1.654,0.056c-1.611-0.37-3.246-0.699-4.905-0.695c-0.656-0.002-1.327,0.023-1.954,0.235
		c-0.577,0.19-1.072,0.554-1.554,0.911c-0.294,0.221-0.663,0.293-0.983,0.467c-0.561,0.311-1.213,0.526-1.86,0.443
		c-0.151-0.005-0.366-0.147-0.239-0.312c0.362-0.414,0.918-0.587,1.435-0.723c0.225-0.058,0.409-0.213,0.56-0.38
		c0.184-0.19,0.142-0.498,0.324-0.688c0.289-0.302,0.379-0.729,0.435-1.128c0.112-0.912,0.021-1.835-0.119-2.736
		c-0.103-0.691-0.322-1.355-0.486-2.033c-0.264-1.122-0.213-2.286-0.42-3.416c-0.357-1.627-0.542-3.29-0.937-4.91
		c-0.181-0.707-0.353-1.442-0.772-2.051c-0.381-0.556-1.046-0.794-1.652-1.015c-1.096-0.361-2.236-0.597-3.386-0.687
		c-1.082-0.089-2.157,0.146-3.188,0.45c-0.275,0.323-0.437,0.731-0.629,1.107c-0.391,0.847-0.709,1.726-1.125,2.562
		c-0.347,0.723-0.734,1.451-0.822,2.261c-0.098,0.737-0.417,1.418-0.744,2.076c-0.517,1.138-0.669,2.397-1.136,3.552
		c-0.5,1.264-1.199,2.491-2.243,3.383c-0.513,0.437-1.141,0.717-1.639,1.176c-0.543,0.497-1.091,1.013-1.77,1.32
		c-0.54,0.232-1.008,0.607-1.568,0.799c-0.809,0.276-1.647,0.455-2.478,0.655c-1.005,0.222-2.039,0.388-3.07,0.312
		c-1.118-0.171-2.259-0.515-3.124-1.275c-0.611-0.521-0.796-1.354-0.903-2.111c-0.094-0.507,0.046-1.009,0.044-1.515
		c-0.004-0.635,0.297-1.282,0.825-1.646c0.376-0.262,0.878-0.345,1.311-0.184c0.226,0.093,0.393,0.282,0.533,0.477
		c0.12,0.179,0.251,0.382,0.212,0.609c-0.468-0.112-0.721-0.632-1.202-0.716c-0.272-0.019-0.479,0.207-0.594,0.431
		c-0.207,0.425-0.255,0.948-0.057,1.385c0.354,0.676,0.375,1.461,0.651,2.167c0.156,0.468,0.501,0.907,1.002,1.021
		c0.67,0.159,1.366,0.026,2.031-0.102c0.71-0.183,1.49-0.127,2.145-0.496c0.561-0.341,0.939-0.895,1.442-1.305
		c0.376-0.316,0.824-0.556,1.127-0.956c0.695-0.906,1.321-1.891,1.662-2.988c0.14-0.439,0.064-0.93,0.285-1.347
		c0.293-0.55,0.763-0.977,1.104-1.493c0.181-0.262,0.238-0.58,0.353-0.871c0.361-0.953,0.758-1.894,1.266-2.78
		c0.737-1.305,1.321-2.692,1.783-4.116c-1.056-0.03-2.14-0.171-3.095-0.647c-0.917-0.597-1.813-1.256-2.52-2.099
		c-0.511-0.607-0.89-1.333-1.058-2.113c0.187-0.059,0.419-0.077,0.565,0.08c0.274,0.287,0.3,0.724,0.571,1.015
		c0.352,0.4,0.848,0.631,1.238,0.987c0.755,0.264,1.592,0.254,2.357,0.028c1.195-0.344,2.21-1.103,3.367-1.541
		c0.223-0.421,0.344-0.897,0.515-1.345c0.656-1.905,1.188-3.882,2.238-5.622c0.37-0.732,0.661-1.508,0.88-2.298
		c0.168-0.577,0.082-1.205,0.324-1.763c0.273-0.65,0.731-1.198,1.051-1.823c0.463-0.895,0.789-1.851,1.104-2.805
		c0.478-1.475,0.859-2.979,1.186-4.495c0.148-0.662,0.154-1.384-0.159-2.001c-0.164-0.306-0.057-0.665-0.164-0.986
		c-0.093-0.302-0.155-0.625-0.354-0.882c-0.366-0.49-0.789-0.943-1.272-1.32c-0.579-0.407-1.202-0.843-1.94-0.845
		c-0.513,0-1.1,0.134-1.527-0.238C54.988,0.34,55.197,0.121,55.48,0.052L55.48,0.052z M61.385,12.287
		c-0.389,0.366-0.208,0.952-0.305,1.42c-0.382,1.882-0.927,3.726-1.497,5.556c-0.153,0.518-0.201,1.061-0.343,1.581
		c-0.113,0.412-0.406,0.741-0.564,1.133c-0.517,1.286-0.855,2.634-1.258,3.958c1.243,0.003,2.495,0.209,3.644,0.691
		c1.565,0.634,2.858,1.747,4.194,2.749c-0.381-1.508-0.443-3.094-1.004-4.556c-0.189-0.549-0.655-0.944-0.846-1.491
		c-0.294-0.993-0.114-2.046-0.298-3.057c-0.45-2.698-0.654-5.445-1.372-8.094C61.628,12.021,61.478,12.209,61.385,12.287
		L61.385,12.287z"/>
	<path fill-rule="evenodd" clip-rule="evenodd" fill="#029999" d="M92.364,9.631c0.334-0.024,0.597-0.284,0.936-0.288
		c0.461-0.025,1.009-0.016,1.341,0.359c0.319,0.323,0.775,0.683,0.69,1.197c-0.117,0.46-0.429,0.839-0.641,1.258
		c-0.241,0.457-0.751,0.663-1.226,0.784c-0.601,0.17-1.277,0.23-1.759,0.668c-0.463,0.018-0.876-0.252-1.217-0.541
		c-0.451-0.382-0.744-1.007-0.57-1.597c0.097-0.457,0.441-0.803,0.829-1.039C91.263,10.125,91.744,9.699,92.364,9.631L92.364,9.631z
		"/>
	<path fill-rule="evenodd" clip-rule="evenodd" fill="#029999" d="M113.596,11.447c0.818-0.108,1.67-0.078,2.451,0.208
		c0.516,0.193,1.008,0.456,1.443,0.794c0.198,0.159,0.43,0.295,0.564,0.521c0.184,0.305,0.263,0.659,0.362,0.998
		c0.132,0.464,0.153,0.98-0.066,1.422c-0.081,0.226-0.316,0.324-0.503,0.445c-0.472,0.268-0.997,0.481-1.546,0.497
		c-0.104-0.005-0.323,0.007-0.271-0.153c0.489-0.368,0.826-0.908,1.048-1.47c0.079-0.406,0.254-0.927-0.081-1.26
		c-0.368-0.331-0.743-0.741-1.271-0.771c-1.402,0.092-2.83,0.37-4.057,1.085c-0.958,0.555-1.729,1.412-2.194,2.415
		c-0.524,1.175-1.07,2.343-1.512,3.552c-0.179,0.586-0.239,1.204-0.45,1.78c-0.182,0.504-0.598,0.877-0.786,1.376
		c-0.198,0.511-0.321,1.05-0.521,1.562c-0.336,0.877-0.56,1.802-0.595,2.742c-0.07,1.023,0.268,2.013,0.324,3.028
		c0.164,2.042,0.828,3.997,1.586,5.884c0.214,0.592,0.484,1.165,0.863,1.67c0.683,0.937,1.565,1.699,2.322,2.573
		c0.394,0.449,0.819,0.871,1.179,1.349c0.265,0.35,0.613,0.659,1.055,0.748c0.763,0.152,1.546-0.019,2.283-0.227
		c1.199-0.365,2.364-0.882,3.377-1.628c0.827-0.602,1.621-1.255,2.374-1.949c0.389-0.386,0.812-0.78,0.99-1.314
		c0.225-0.613,0.449-1.253,0.422-1.914c-0.016-0.497-0.466-0.984-0.191-1.473c0.199-0.07,0.409,0.078,0.539,0.225
		c0.312,0.375,0.474,0.845,0.672,1.287c0.36,0.871,0.602,1.822,0.503,2.771c-0.071,0.738-0.424,1.416-0.838,2.018
		c-0.141,0.187-0.277,0.398-0.497,0.5c-0.384,0.193-0.775,0.375-1.142,0.6c-0.312,0.184-0.527,0.493-0.851,0.663
		c-0.722,0.402-1.51,0.671-2.232,1.075c-1.117,0.6-2.35,1.059-3.632,1.04c-1.234,0.014-2.428-0.374-3.557-0.834
		c-1.268-0.5-2.569-0.981-3.659-1.818c-0.634-0.468-1.087-1.123-1.646-1.668c-1.692-1.685-3.008-3.745-3.807-5.995
		c-0.212-0.62-0.553-1.193-0.663-1.843c-0.33-1.691-0.188-3.428-0.08-5.134c0.105-1.772,0.604-3.496,1.283-5.127
		c0.497-1.174,1.012-2.348,1.678-3.437c1.235-2.032,2.854-3.858,4.839-5.182c0.458-0.295,0.928-0.582,1.428-0.802
		C111.539,11.936,112.546,11.59,113.596,11.447L113.596,11.447z"/>
	<path fill-rule="evenodd" clip-rule="evenodd" fill="#029999" d="M143.613,12.687c0.191-0.24,0.539-0.187,0.796-0.104
		c0.166,0.328,0.166,0.792-0.106,1.067c-0.253,0.262-0.587,0.421-0.85,0.669c-0.5,0.468-0.89,1.035-1.315,1.569
		c-0.464,0.583-0.763,1.285-1.273,1.831c-0.39,0.416-0.976,0.541-1.514,0.631c-1.79,0.241-3.597-0.073-5.391,0.08
		c-0.527,0.059-1.034,0.27-1.57,0.247c-0.789-0.005-1.611-0.212-2.375,0.072c-0.695,3.523,0.373,7.092-0.048,10.634
		c1.175-0.04,2.194-0.688,3.135-1.326c0.672-0.445,1.359-0.9,2.146-1.111c0.545-0.146,1.129-0.178,1.682-0.042
		c0.309,0.079,0.627,0.223,0.801,0.505c0.215,0.347,0.239,0.766,0.359,1.148c0.119,0.461,0.456,0.825,0.607,1.274
		c0.391,1.051,0.787,2.151,0.705,3.292c-0.246-0.03-0.473-0.167-0.586-0.389c-0.324-0.603-0.241-1.344-0.595-1.934
		c-0.219-0.364-0.688-0.434-1.074-0.426c-0.797,0.029-1.551,0.32-2.288,0.593c-1.562,0.648-3.293,0.841-4.771,1.69
		c0.119,1.418-0.1,2.851,0.109,4.262c0.061,0.539,0.429,0.986,0.474,1.53c0.107,0.966-0.313,1.913-0.15,2.878
		c1.315,0.018,2.248-1.125,3.517-1.284c0.553-0.081,1.114-0.001,1.658,0.107c0.39,0.086,0.794,0.149,1.157,0.326
		c0.475,0.221,0.931,0.52,1.46,0.595c0.633,0.095,1.286,0.035,1.907,0.213c1.211,0.349,2.326,0.991,3.574,1.221
		c0.662,0.114,1.418,0.09,1.97-0.344c0.532-0.409,1.01-0.933,1.258-1.565c0.29-0.869-0.361-1.731-0.081-2.605
		c0.185-0.005,0.401-0.005,0.532,0.152c0.243,0.287,0.261,0.686,0.403,1.023c0.211,0.539,0.431,1.148,0.215,1.72
		c-0.329,0.754-1.182,1.118-1.497,1.88c-0.162,0.423-0.394,0.812-0.583,1.221c-0.217,0.457-0.57,0.824-0.92,1.178
		c-0.191,0.196-0.455,0.338-0.735,0.324c-0.583-0.006-1.16-0.083-1.735-0.156c-1.158-0.159-2.315-0.347-3.455-0.606
		c-1.714-0.399-3.312-1.199-5.049-1.518c-2.909-0.577-5.967-0.266-8.74,0.764c-0.387,0.15-0.801,0.202-1.209,0.261
		c-0.397,0.065-0.694,0.379-1.085,0.452c-0.376,0.038-0.604-0.358-0.643-0.683c-0.015-0.187-0.058-0.477,0.168-0.553
		c0.683-0.227,1.44,0.079,2.112-0.21c0.497-0.294,0.946-0.705,1.228-1.216c0.239-0.614,0.241-1.286,0.287-1.935
		c0.099-2.857,0.275-5.715,0.19-8.575c-0.059-0.917-0.299-1.815-0.312-2.735c-0.018-0.707,0.222-1.388,0.263-2.09
		c0.062-0.776-0.106-1.542-0.187-2.311c-0.105-0.861-0.069-1.729-0.073-2.594c0-1.133-0.019-2.272-0.176-3.396
		c-0.086-0.495-0.168-1.022-0.471-1.438c-0.369-0.473-1.153-0.331-1.445-0.882c0.136-0.151,0.296-0.294,0.502-0.345
		c0.392-0.106,0.781,0.067,1.152,0.173c0.608,0.196,1.258,0.089,1.876,0.005c0.764-0.118,1.527-0.265,2.305-0.276
		c0.938-0.028,1.884,0.001,2.813-0.155c1.841-0.317,3.695-0.572,5.562-0.686c1.071-0.073,2.151-0.129,3.197-0.389
		c0.638-0.168,1.303-0.418,1.736-0.939C143.363,13.23,143.434,12.924,143.613,12.687L143.613,12.687z"/>
	<path fill-rule="evenodd" clip-rule="evenodd" fill="#029999" d="M78.091,13.246c1.064-0.23,2.141-0.503,3.24-0.457
		c0.621,0.019,1.181,0.368,1.806,0.358c0.294-0.004,0.619,0.07,0.781,0.34c-0.184,0.421-0.697,0.386-1.075,0.338
		c-0.612-0.097-1.296,0.073-1.71,0.553c-0.351,0.407-0.475,0.948-0.566,1.465c-0.177,1.103-0.266,2.226-0.18,3.341
		c0.111,1.598,0.911,3.135,0.616,4.758c-0.15,0.844-0.002,1.695,0.07,2.538c0.108,1.125,0.217,2.251,0.293,3.378
		c0.064,1.647,0.552,3.252,0.527,4.904c-0.024,1.769,0.15,3.536,0.464,5.276c0.07,0.293,0.1,0.612,0.269,0.87
		c0.302,0.143,0.615-0.097,0.882-0.222c0.552-0.361,1.227-0.418,1.867-0.474c1.631-0.105,3.217,0.376,4.771,0.806
		c0.686,0.198,1.391,0.321,2.078,0.518c0.916,0.256,1.822,0.555,2.743,0.799c0.793,0.212,1.56,0.531,2.376,0.645
		c1.322,0.173,2.693,0.07,3.957-0.368c0.61-0.229,1.28-0.565,1.521-1.22c0.159-0.398,0.317-0.891,0.061-1.285
		c-0.212-0.301-0.534-0.554-0.564-0.949c0.405-0.052,0.841,0.106,1.063,0.463c0.364,0.568,0.391,1.272,0.457,1.924
		c0.03,0.143-0.064,0.263-0.12,0.384c-0.395,0.742-0.66,1.555-1.155,2.24c-0.271,0.378-0.636,0.692-1.055,0.892
		c-1.103,0.539-2.339,0.666-3.491,1.052c-0.464,0.137-0.974,0.15-1.435-0.006c-0.352-0.117-0.689-0.271-1.045-0.377
		c-0.417-0.129-0.854-0.187-1.27-0.322c-1.622-0.561-3.315-0.87-4.995-1.197c-1.581-0.292-3.148-0.693-4.759-0.78
		c-1.171-0.061-2.392-0.008-3.476,0.481c-0.975,0.409-1.898,0.986-2.952,1.174c-0.22,0.061-0.247-0.225-0.258-0.374
		c0.12-0.158,0.308-0.265,0.378-0.457c0.152-0.378,0.127-0.797,0.134-1.198c0-0.765-0.307-1.477-0.416-2.225
		c-0.208-1.29-0.329-2.596-0.347-3.902c-0.02-1.133,0.129-2.266,0.044-3.399c-0.04-0.745-0.218-1.478-0.24-2.224
		c0.042-1.86-0.181-3.712-0.382-5.558c-0.196-1.989-0.169-3.991-0.345-5.982c-0.131-1.431-0.347-2.881-0.921-4.208
		c-0.19-0.344-0.409-0.765-0.814-0.872c-0.799,0.03-1.62,0.03-2.381-0.236c-0.344-0.123-0.709-0.331-0.83-0.699
		c-0.058-0.126,0.09-0.213,0.18-0.272c0.282-0.126,0.595-0.003,0.874,0.077c0.914,0.306,1.888,0.104,2.816-0.024
		C76.409,13.399,77.265,13.436,78.091,13.246L78.091,13.246z"/>
	<path fill-rule="evenodd" clip-rule="evenodd" fill="#029999" d="M87.765,16.072c-0.168-0.14-0.082-0.383,0.041-0.52
		c2.281,0.621,4.649,0.914,7.011,0.886c0.394,0.016,0.823,0,1.176,0.203c0.207,0.12,0.116,0.457-0.096,0.513
		c-0.438,0.121-0.865-0.118-1.299-0.139c-0.394,0.085-0.556,0.515-0.617,0.869c-0.136,0.835-0.045,1.684-0.081,2.524
		c-0.032,4.143,0.243,8.28,0.56,12.41c0.091,1.106,0.161,2.215,0.274,3.319c0.228,0.281,0.602,0.391,0.95,0.431
		c0.425,0.054,0.849-0.13,1.272-0.043c0.148,0.028,0.225,0.166,0.302,0.282c-0.323,0.456-0.937,0.463-1.438,0.505
		c-1.729,0.186-3.446,0.49-5.182,0.622c-0.454,0.044-0.927,0.098-1.333,0.327c-0.325,0.164-0.665,0.399-1.047,0.331
		c-0.12-0.041-0.298-0.089-0.338-0.219c0.062-0.399,0.504-0.538,0.838-0.638c0.427-0.145,0.948-0.199,1.235-0.585
		c0.181-0.408,0.132-0.871,0.152-1.305c-0.042-3.053-0.018-6.105-0.089-9.156c-0.015-0.866-0.047-1.731-0.062-2.598
		c-0.006-0.67,0.197-1.358-0.015-2.013c-0.172-0.57-0.412-1.129-0.468-1.728c-0.086-0.911,0.047-1.826-0.061-2.737
		c-0.049-0.343-0.126-0.718-0.39-0.964C88.688,16.334,88.15,16.359,87.765,16.072L87.765,16.072z"/>
	<path fill-rule="evenodd" clip-rule="evenodd" fill="#029999" d="M0.327,43.886c0.376-0.14,0.787-0.12,1.181-0.14
		c0.552-0.001,1.107-0.063,1.657,0.024c0.872,0.12,1.672,0.529,2.54,0.67c1.394,0.246,2.844,0.048,4.215,0.45
		c0.768,0.232,1.5,0.577,2.188,0.985c0.171,0.109,0.369,0.204,0.471,0.392c0.363,0.604,0.501,1.304,0.679,1.976
		c0.222,0.831,0.635,1.603,0.786,2.452c0.142,0.724,0.229,1.458,0.426,2.17c0.308,1.126,0.815,2.188,1.113,3.317
		c0.72,2.695,0.836,5.51,1.536,8.211c0.232,0.824,0.557,1.629,0.639,2.488c0.105,1.254,0.71,2.405,0.778,3.665
		c0.511-0.307,0.667-0.925,0.769-1.47c0.209-1.267,0.973-2.329,1.509-3.468c0.666-1.378,0.911-2.913,1.545-4.305
		c0.584-1.289,1.103-2.632,1.252-4.05c0.058-0.415,0.043-0.838,0.096-1.252c0.381-0.039,0.7,0.229,0.885,0.539
		c0.409,0.688,0.897,1.354,1.088,2.146c0.162,0.711,0.12,1.45,0.25,2.168c0.066,0.436,0.299,0.83,0.334,1.272
		c0.073,0.855,0.106,1.714,0.216,2.566c0.053,0.457,0.152,0.91,0.201,1.369c0.104,0.911,0.141,1.831,0.343,2.728
		c0.366,1.803,0.979,3.566,1.062,5.416c0.472-1.146,0.943-2.292,1.418-3.438c0.588-1.454,1.12-2.941,1.411-4.487
		c0.093-0.483,0.001-0.988,0.148-1.465c0.179-0.439,0.634-0.685,0.839-1.108c0.255-0.63,0.243-1.344,0.576-1.945
		c0.689-1.243,0.923-2.669,1.516-3.953c0.327-0.703,0.635-1.428,0.725-2.206c0.157-1.326,1.147-2.453,1.038-3.825
		c-0.135-0.784-0.61-1.46-1.101-2.062c-0.341-0.388-0.734-0.794-1.268-0.876c-0.357-0.073-0.871-0.155-0.941-0.59
		c0.25-0.132,0.54-0.063,0.804-0.024c0.952,0.148,1.769,0.697,2.578,1.181c0.966,0.57,1.906,1.202,2.965,1.589
		c0.782,0.293,1.614,0.438,2.449,0.468c1.095,0.042,2.197,0.088,3.276,0.291c0.229,0.058,0.489,0.089,0.667,0.26
		c0.064,0.104-0.036,0.216-0.11,0.281c-0.225,0.182-0.534,0.153-0.804,0.148c-0.637-0.055-1.269,0.098-1.877,0.271
		c-0.604,0.2-1.232,0.451-1.688,0.908c-1.372,2.161-2.24,4.59-3.119,6.982c-0.597,1.642-1.175,3.291-1.873,4.895
		c-0.241,0.562-0.634,1.056-0.803,1.652c-0.186,0.657-0.264,1.341-0.398,2.01c-0.203,1.062-0.601,2.083-0.695,3.165
		c-0.047,0.52,0.119,1.055-0.039,1.565c-0.168,0.447-0.508,0.803-0.709,1.234c-0.478,1.034-0.92,2.086-1.312,3.155
		c-0.516,1.375-1.105,2.723-1.598,4.108c-0.494,1.395-0.683,2.887-1.31,4.235c-0.312,0.659-0.568,1.354-0.653,2.084
		c-0.105,0.577-0.032,1.192-0.281,1.741c-0.064,0.184-0.303,0.16-0.459,0.168c-0.167,0.005-0.277-0.146-0.323-0.286
		c-0.141-0.421-0.173-0.868-0.287-1.294c-0.128-0.457-0.381-0.873-0.477-1.34c-0.336-1.542-0.421-3.128-0.802-4.661
		c-0.291-1.093-0.598-2.183-0.941-3.259c-0.286-0.891-0.689-1.742-0.943-2.644c-0.591-2.165-0.422-4.464-1.076-6.618
		c-0.413,0.732-0.535,1.579-0.72,2.389c-0.158,0.78-0.449,1.521-0.666,2.285c-0.202,0.645-0.246,1.322-0.375,1.982
		c-0.135,0.688-0.513,1.292-0.697,1.963c-0.198,0.729-0.277,1.484-0.505,2.205c-0.325,1.04-0.533,2.112-0.79,3.169
		c-0.12,0.511-0.322,1.001-0.405,1.521c0.008,0.447-0.764,0.461-0.865,0.069c-0.352-0.592-0.152-1.3-0.33-1.936
		c-0.194-0.73-0.536-1.416-0.695-2.154c-0.188-0.789-0.379-1.577-0.595-2.356c-0.22-0.721-0.378-1.458-0.523-2.194
		c-0.095-0.438-0.137-0.89-0.317-1.303c-0.565-1.243-0.593-2.637-0.884-3.955c-0.357-1.542-0.759-3.074-1.059-4.629
		c-0.225-1.12-0.488-2.232-0.779-3.335c-0.204-0.681-0.266-1.39-0.449-2.073c-0.167-0.661-0.747-1.13-0.881-1.804
		c-0.333-1.181-0.322-2.424-0.631-3.609c-0.256-0.976-0.504-1.952-0.818-2.91c-0.245-0.677-0.265-1.412-0.51-2.09
		c-0.423-1.17-0.618-2.409-1.064-3.571c-0.363-0.977-0.89-1.946-1.751-2.567c-0.614-0.461-1.382-0.645-2.132-0.742
		c-0.679-0.081-1.377-0.114-2.051,0.034c-0.609,0.104-1.243,0.375-1.858,0.18C-0.026,45.005,0.013,44.66,0,44.421
		C-0.008,44.199,0.106,43.962,0.327,43.886L0.327,43.886z"/>
	<path fill-rule="evenodd" clip-rule="evenodd" fill="#029999" d="M89.869,47.21c1.191-0.096,2.427,0.103,3.463,0.721
		c1.285,0.745,2.207,1.943,3.123,3.081c0.663,0.814,1.323,1.659,2.175,2.288c0.307-0.915,0.218-1.897,0.421-2.83
		c0.114-0.569,0.328-1.129,0.317-1.714c-0.001-0.336-0.162-0.726-0.518-0.81c-0.288-0.08-0.653-0.162-0.737-0.502
		c0.077-0.263,0.438-0.281,0.669-0.288c0.924,0.061,1.863,0.076,2.754,0.35c0.248,0.084,0.507,0.172,0.693,0.363
		c-0.348,0.528-1.044-0.142-1.42,0.311c-0.128,0.211-0.223,0.441-0.358,0.649c-0.192,1.596-0.66,3.147-0.75,4.755
		c-0.025,0.243,0.028,0.485,0.054,0.727c0.036,0.305-0.163,0.566-0.188,0.862c-0.084,0.809,0.01,1.664,0.428,2.376
		c0.141,0.257,0.344,0.469,0.52,0.7c-0.202,0.093-0.429,0.179-0.65,0.104c-0.441-0.139-0.737-0.526-1.009-0.875
		c-0.466-0.621-0.872-1.285-1.366-1.885c-0.456-0.545-0.809-1.162-1.241-1.724c-0.354-0.455-0.766-0.86-1.178-1.263
		c-0.797-0.755-1.486-1.641-2.423-2.233c-0.265,1.974-0.163,3.971-0.31,5.954c0.184,0.265,0.531,0.325,0.826,0.386
		c0.477,0.093,1.036,0.095,1.383,0.489c-0.091,0.201-0.313,0.306-0.527,0.257c-1.256-0.296-2.547-0.03-3.817-0.03
		c-0.275-0.017-0.634-0.06-0.761-0.347c-0.045-0.093,0.064-0.132,0.125-0.17c0.396-0.216,0.877-0.109,1.283-0.295
		c0.244-0.11,0.382-0.389,0.358-0.65c-0.066-0.726,0.047-1.451,0.113-2.172c0.114-1.147,0.26-2.299,0.19-3.452
		c-0.04-0.451-0.078-0.938-0.361-1.313c-0.155-0.231-0.38-0.43-0.449-0.709c-0.06-0.299-0.409-0.361-0.611-0.537
		C89.904,47.659,89.85,47.423,89.869,47.21L89.869,47.21z"/>
	<path fill-rule="evenodd" clip-rule="evenodd" fill="#029999" d="M164.841,48.149c1.362-0.146,2.743-0.3,4.11-0.112
		c0.646,0.1,1.311,0.263,1.836,0.673c0.408,0.312,0.797,0.649,1.217,0.95c1.282,0.959,2.458,2.049,3.585,3.185
		c0.442,0.451,0.849,0.936,1.234,1.435c0.423,0.543,0.938,1.025,1.236,1.654c0.408,0.829,0.655,1.724,0.943,2.6
		c0.163,0.528,0.383,1.039,0.509,1.579c0.276,1.119,0.383,2.271,0.46,3.417c0.035,0.312,0.034,0.624,0.013,0.938
		c-0.049,0.522,0.089,1.068-0.117,1.568c-1.083,2.671-2.52,5.185-4.045,7.624c-0.593,0.967-1.291,1.87-1.784,2.895
		c-0.644,1.287-1.372,2.534-2.233,3.688c-0.952,1.275-2.188,2.305-3.473,3.229c-0.715,0.505-1.42,1.036-2.232,1.376
		c-0.992,0.449-2.084,0.578-3.141,0.789c-0.563,0.099-1.142-0.054-1.702,0.084c-0.446,0.108-0.879,0.278-1.338,0.315
		c-1.662,0.156-3.333,0.295-4.967,0.658c-1.467,0.334-2.885,0.919-4.396,1.03c-0.269,0.018-0.504-0.335-0.306-0.551
		c0.341-0.326,0.841-0.365,1.264-0.539c0.978-0.4,1.976-0.758,2.891-1.291c0.429-0.256,0.915-0.402,1.321-0.697
		c0.451-0.357,0.707-0.899,0.862-1.44c0.295-1.076,0.286-2.2,0.346-3.306c0.057-0.912,0.006-1.825-0.029-2.74
		c-0.063-0.899,0.249-1.766,0.326-2.655c0.256-3.87,0.277-7.747,0.48-11.618c0.064-0.895,0.047-1.803,0.279-2.676
		c0.179-0.686,0.018-1.392,0.096-2.086c0.119-1.379,0.49-2.725,0.562-4.11c0.038-0.697-0.019-1.402-0.196-2.079
		c-1.343,0.055-2.669,0.295-4.005,0.415c-1.154,0.102-2.347,0.136-3.465-0.216c-0.256-0.086-0.523-0.167-0.735-0.336
		c-0.517-0.463-1.192-0.711-1.67-1.223c-0.233-0.232-0.448-0.534-0.409-0.879c0.746-0.067,1.428,0.271,2.087,0.577
		c0.764,0.362,1.634,0.335,2.456,0.264c0.931-0.097,1.855-0.248,2.769-0.457c0.708-0.164,1.424-0.291,2.126-0.483
		c0.623-0.152,1.245-0.353,1.894-0.367c0.674,0.002,1.313-0.241,1.96-0.396C162.573,48.541,163.692,48.261,164.841,48.149
		L164.841,48.149z M163.929,52.314c-0.321,1.236-0.394,2.518-0.451,3.787c-0.259,5.21-1.454,10.312-1.872,15.507
		c-0.146,1.822-0.194,3.653-0.269,5.481c-0.069,2.057-0.101,4.118,0.077,6.172c0.995,0.045,1.977-0.168,2.95-0.35
		c0.866-0.146,1.773-0.129,2.598-0.465c0.745-0.327,1.303-0.959,1.782-1.599c0.692-0.971,1.275-2.014,1.822-3.071
		c0.651-1.267,1.005-2.657,1.363-4.029c0.173-0.685,0.413-1.354,0.513-2.056c0.072-0.521,0.372-0.967,0.545-1.454
		c0.496-1.499,1.098-2.973,1.361-4.536c0.248-1.525,0.374-3.144-0.153-4.626c-0.142-0.454-0.466-0.811-0.738-1.189
		c-0.287-0.39-0.463-0.845-0.673-1.275c-0.252-0.553-0.521-1.098-0.842-1.613c-0.48-0.793-0.788-1.705-1.451-2.373
		c-0.809-0.829-1.844-1.413-2.927-1.804C166.406,52.406,165.16,52.21,163.929,52.314L163.929,52.314z"/>
	<path fill-rule="evenodd" clip-rule="evenodd" fill="#029999" d="M86.522,48.328c0.255-0.041,0.463-0.27,0.73-0.22
		c0.5,0.058,1.011-0.104,1.504,0.028c0.216,0.054,0.328,0.265,0.382,0.464c-0.61,0.338-1.31-0.053-1.955,0.101
		c0.059,3.187,0.337,6.37,0.747,9.53c0.641,0.3,1.368,0.069,1.976-0.203c0.35,0.186,0.581,0.553,0.54,0.958
		c-1.256,0.087-2.515-0.02-3.772-0.045c-0.771-0.011-1.551-0.014-2.304,0.169c-0.626,0.13-1.411,0.217-1.877-0.324
		c0.338-0.342,0.852-0.279,1.287-0.239c0.329,0.022,0.717,0.073,0.986-0.162c0.263-0.308,0.264-0.741,0.283-1.124
		c-0.042-2.628-0.376-5.241-0.711-7.847c-0.016-0.184-0.156-0.339-0.331-0.395c-0.62-0.199-1.298,0.067-1.911-0.168
		c-0.232-0.088-0.288-0.344-0.306-0.562C83.368,48.211,84.953,48.625,86.522,48.328L86.522,48.328z"/>
	<path fill-rule="evenodd" clip-rule="evenodd" fill="#029999" d="M120.562,51.206c0.137-0.077,0.3-0.085,0.457-0.111
		c0.095,0.427-0.047,0.906-0.402,1.172c-0.543,0.418-1.234,0.543-1.875,0.735c-0.517,0.157-1.077,0.299-1.477,0.684
		c-0.49,1.35-0.517,2.811-0.575,4.229c-0.082,1.503,0.211,2.986,0.34,4.475c0.157,1.772-0.073,3.555,0.103,5.327
		c0.106,1.152,0.169,2.312,0.077,3.467c-0.084,1.507-0.284,3.092,0.298,4.527c0.659-0.215,1.365-0.266,2.052-0.189
		c0.936,0.098,1.828,0.401,2.724,0.667c1.236,0.36,2.487,0.715,3.638,1.307c0.738,0.377,1.464,0.806,2.277,1.003
		c1.271,0.312,2.587,0.476,3.896,0.413c0.745-0.054,1.528-0.171,2.158-0.604c0.412-0.274,0.473-0.825,0.825-1.157
		c0.227,0.164,0.307,0.465,0.318,0.733c0.021,0.616-0.238,1.193-0.478,1.748c-0.262,0.575-0.526,1.168-0.955,1.642
		c-0.318,0.362-0.829,0.45-1.287,0.489c-1.168,0.066-2.328-0.153-3.461-0.417c-1.193-0.271-2.323-0.755-3.48-1.142
		c-1.419-0.487-2.92-0.642-4.376-0.982c-1.238-0.282-2.439-0.715-3.693-0.932c-0.9-0.155-1.826-0.246-2.733-0.104
		c-0.855,0.146-1.702,0.75-2.589,0.409c0.024-0.083,0.049-0.172,0.127-0.219c0.325-0.254,0.723-0.416,1.002-0.729
		c0.171-0.194,0.223-0.459,0.265-0.707c0.098-0.763,0.021-1.533,0.034-2.301c-0.023-0.987,0.167-1.969,0.148-2.957
		c0.012-0.476-0.255-0.893-0.297-1.359c-0.243-1.873,0.044-3.757,0.085-5.633c0.063-1.471-0.151-2.932-0.272-4.396
		c-0.141-1.849-0.168-3.704-0.163-5.558c-0.021-0.558-0.078-1.18-0.484-1.605c-0.455-0.451-1.148-0.547-1.758-0.457
		c-0.661,0.105-1.315,0.363-1.817,0.813c-0.241,0.199-0.281,0.578-0.578,0.715c-0.095,0.024-0.271,0.062-0.296-0.07
		c-0.076-0.298,0.121-0.567,0.307-0.777c0.488-0.536,1.057-1.021,1.73-1.306c0.527-0.221,1.111-0.223,1.674-0.195
		c1.06,0.068,2.108,0.274,3.173,0.261c1.011-0.02,2.016-0.144,3.026-0.145c0.511-0.018,1.041-0.004,1.529-0.178
		C120.095,51.677,120.271,51.362,120.562,51.206L120.562,51.206z"/>
	<path fill-rule="evenodd" clip-rule="evenodd" fill="#029999" d="M133.185,53.813c0.731-0.284,1.565-0.266,2.296,0.007
		c0.618,0.229,1.172,0.594,1.735,0.928c1.003,0.599,1.965,1.277,2.81,2.088c1.402,1.344,2.459,3,3.379,4.696
		c1.087,2.016,1.982,4.127,2.928,6.211c0.224,0.493,0.423,1.003,0.724,1.457c0.398,0.602,0.897,1.128,1.296,1.729
		c0.269,0.396,0.318,0.888,0.439,1.341c0.139,0.522,0.337,1.03,0.575,1.516c0.169-0.23,0.189-0.533,0.276-0.798
		c0.313-1.302,0.36-2.646,0.447-3.977c0.036-0.493,0.039-0.991,0.145-1.474c0.148-0.718,0.427-1.403,0.561-2.124
		c0.337-1.687,0.668-3.392,0.643-5.118c-0.018-0.624-0.063-1.292-0.43-1.82c-0.301-0.436-0.799-0.65-1.221-0.94
		c-0.273-0.181-0.468-0.453-0.656-0.715c-0.272-0.348-0.14-0.892,0.123-1.188c0.525,0.054,0.235,0.843,0.717,0.938
		c0.967,0.285,1.836,0.829,2.818,1.062c1.14,0.323,2.351,0.576,3.531,0.321c0.265-0.037,0.482-0.213,0.742-0.271
		c0.057,0.338,0.007,0.749-0.312,0.943c-0.583,0.358-1.298,0.328-1.934,0.541c-0.863,2.745-1.334,5.596-1.715,8.44
		c-0.12,0.842-0.382,1.659-0.479,2.504c-0.109,1.079-0.172,2.161-0.279,3.24c-0.13,1.166-0.223,2.356-0.607,3.473
		c-0.248,0.71-0.315,1.465-0.404,2.206c-0.147,1.439-0.171,2.891-0.1,4.336c0.032,0.5,0.093,1.105-0.319,1.478
		c-0.218,0.024-0.446-0.07-0.584-0.241c-0.209-0.246-0.285-0.566-0.446-0.841c-0.493-0.858-1.093-1.662-1.462-2.588
		c-0.165-0.395-0.204-0.829-0.373-1.221c-0.696-1.669-1.408-3.333-2.139-4.988c-0.433-0.979-0.865-1.957-1.341-2.915
		c-0.409-0.83-0.806-1.667-1.148-2.526c-0.476-1.112-1.038-2.195-1.768-3.162c-0.29,2.437-0.468,4.888-0.461,7.344
		c0.023,0.722-0.054,1.465,0.158,2.165c0.161,0.667-0.016,1.351-0.097,2.017c-0.066,0.526-0.123,1.107,0.152,1.587
		c0.287,0.434,0.86,0.509,1.214,0.869c0.132,0.132,0.175,0.318,0.175,0.502c-0.357,0.116-0.729-0.009-1-0.252
		c-0.359-0.303-0.787-0.518-1.25-0.591c-0.841-0.169-1.705-0.129-2.543-0.287c-0.427-0.086-0.879-0.241-1.152-0.602
		c-0.213-0.271-0.284-0.62-0.296-0.957c0.482,0.041,0.798,0.461,1.24,0.605c0.247,0.093,0.515,0.08,0.773,0.045
		c0.36-2.62,0.344-5.271,0.316-7.908c-0.038-2.501-0.146-5-0.188-7.503c0-1.151,0.217-2.306,0.054-3.454
		c-0.077-0.607-0.491-1.09-0.847-1.562c-0.734-0.904-1.329-1.917-2.118-2.776c-0.33-0.347-0.682-0.69-1.111-0.91
		c-0.664-0.299-1.394-0.004-2.087-0.104C132.561,54.212,132.863,53.931,133.185,53.813L133.185,53.813z"/>
	<path fill-rule="evenodd" clip-rule="evenodd" fill="#029999" d="M68.169,54.349c0.599-0.09,1.296-0.038,1.748,0.413
		c0.314,0.306,0.368,0.777,0.284,1.189c-0.202,0.068-0.456,0.096-0.624-0.062c-0.24-0.248-0.197-0.632-0.373-0.915
		c-0.109-0.157-0.334-0.135-0.495-0.09c-0.621,0.178-1.042,0.736-1.659,0.916c-0.531,0.197-1.099,0.304-1.596,0.583
		c-1.118,0.666-1.857,1.947-1.814,3.256c0.031,1.664,0.64,3.234,0.999,4.841c0.374,1.706,0.484,3.45,0.673,5.181
		c0.326,3.07,1.008,6.087,1.736,9.084c0.343,1.355,0.569,2.757,1.169,4.031c0.131,0.32,0.295,0.665,0.224,1.019
		c-0.043,0.215-0.317,0.318-0.497,0.199c-0.314-0.188-0.505-0.513-0.708-0.806c-0.758-1.254-1.788-2.308-2.65-3.485
		c-0.684-0.895-1.136-1.951-1.917-2.772c-0.412-0.438-0.737-0.945-1.088-1.432c-1.767-2.5-3.458-5.052-5.298-7.498
		c-0.002,1.754-0.611,3.421-0.891,5.136c-0.082,0.543-0.168,1.094-0.103,1.645c0.086,0.865,0.347,1.729,0.218,2.604
		c-0.1,0.694-0.532,1.274-0.72,1.942c-0.473,1.571-0.316,3.234-0.594,4.837c-0.066,0.439-0.064,0.935,0.224,1.303
		c0.267,0.384,0.763,0.48,1.091,0.791c0.135,0.122,0.186,0.304,0.217,0.477c-0.275,0.077-0.582,0.073-0.834-0.073
		c-0.545-0.305-0.895-0.868-1.465-1.138c-0.808-0.385-1.726-0.374-2.599-0.39c-0.796,0.008-1.596,0.021-2.388-0.066
		c-0.406-0.045-0.843-0.15-1.118-0.478c0.067-0.207,0.267-0.363,0.489-0.27c0.575,0.2,1.195,0.192,1.793,0.14
		c0.583-0.059,1.193-0.287,1.536-0.788c0.349-0.52,0.444-1.157,0.539-1.762c0.134-0.96,0.177-1.933,0.362-2.885
		c0.577-3.169,1.168-6.351,1.26-9.58c0.059-1.872-0.007-3.794-0.631-5.579c-0.331-0.958-0.855-1.839-1.471-2.639
		c-0.373-0.482-0.778-1.01-1.381-1.206c-0.437-0.143-0.841,0.146-1.252,0.243c-0.218-0.261-0.052-0.617,0.06-0.887
		c0.045-0.148,0.219-0.168,0.341-0.227c0.802-0.312,1.704-0.168,2.47,0.178c0.857,0.395,1.687,0.866,2.409,1.478
		c1.022,0.855,1.88,1.885,2.71,2.925c1.273,1.605,2.48,3.265,3.572,5.002c0.165,0.259,0.416,0.45,0.577,0.712
		c0.425,0.679,0.718,1.429,1.151,2.104c0.484,0.722,1.004,1.42,1.581,2.071c-0.038-1.034-0.082-2.077-0.289-3.096
		c-0.094-0.504-0.292-0.98-0.389-1.482c-0.188-0.914-0.196-1.851-0.284-2.775c-0.13-1.559-0.588-3.061-0.841-4.6
		c-0.217-1.133-0.477-2.324-1.233-3.231c-0.666-0.792-1.692-1.242-2.718-1.272c-0.238,0.005-0.291-0.338-0.145-0.479
		c0.191-0.178,0.461-0.224,0.709-0.268c0.789-0.103,1.593-0.144,2.377,0.018c0.769,0.156,1.563,0.122,2.316-0.094
		c0.627-0.189,1.304-0.313,1.833-0.722c0.325-0.229,0.63-0.503,1.012-0.632C66.558,54.703,67.354,54.473,68.169,54.349
		L68.169,54.349z"/>
	<path fill-rule="evenodd" clip-rule="evenodd" fill="#029999" d="M124.505,56.519c0.509-0.36,1.037-0.752,1.675-0.841
		c1.118-0.167,2.242,0.204,3.198,0.766c0.959,0.549,1.814,1.272,2.835,1.708c0.436,0.189,0.927,0.228,1.346,0.459
		c0.431,0.406,0.527,1.038,0.518,1.603c-0.039,1.266-0.479,2.468-0.839,3.668c-0.406,1.383-0.39,2.846-0.29,4.271
		c0.07,0.869,0.11,1.755,0.395,2.586c0.224,0.686,0.622,1.306,1.131,1.814c0.246,0.253,0.698,0.146,0.91,0.449
		c0.102,0.123,0,0.275-0.083,0.378c-0.243,0.265-0.63,0.312-0.97,0.304c-0.415,0.011-0.74-0.282-1.058-0.508
		c-0.587-0.465-1.159-0.959-1.628-1.547c-0.393-0.51-0.405-1.188-0.688-1.749c-0.729,1.042-1.288,2.195-2.1,3.18
		c-0.674,0.841-1.599,1.523-2.674,1.726c-0.869,0.157-1.794,0.133-2.619-0.2c-0.877-0.345-1.692-0.863-2.354-1.534
		c-0.377-0.396-0.725-0.87-0.782-1.428c-0.068-0.629-0.029-1.263,0.03-1.89c0.079-0.699,0.181-1.402,0.409-2.07
		c0.13-0.425,0.517-0.686,0.78-1.021c0.336-0.412,0.722-0.801,1.21-1.029c0.808-0.383,1.65-0.702,2.524-0.896
		c0.399-0.073,0.782-0.211,1.134-0.416c0.614-0.361,1.317-0.527,1.952-0.845c0.544-0.271,0.995-0.692,1.406-1.135
		c0.406-0.446,0.541-1.048,0.809-1.572c0.108-0.22,0.211-0.487,0.085-0.723c-0.222-0.452-0.657-0.742-1.059-1.021
		c-1.129-0.722-2.279-1.481-3.604-1.777c-0.611-0.135-1.325-0.137-1.836,0.279c-0.346,0.31-0.645,0.673-0.881,1.072
		c-0.134,0.235-0.26,0.504-0.221,0.782c0.052,0.317,0.429,0.464,0.458,0.792c0.055,0.322-0.149,0.691-0.479,0.76
		c-0.359,0.062-0.687-0.175-0.897-0.439c-0.324-0.41-0.458-1.023-0.188-1.494c0.261-0.47,0.566-0.914,0.89-1.343
		C123.336,57.102,123.985,56.888,124.505,56.519L124.505,56.519z M128.981,65.472c-0.503,0.169-0.834,0.623-1.11,1.05
		c-0.411,0.64-0.685,1.36-1.131,1.976c-0.439-0.072-0.427-0.584-0.594-0.897c-0.067-0.16-0.259-0.161-0.401-0.181
		c-0.646-0.076-1.345,0.183-1.721,0.729c-0.351,0.487-0.363,1.186-0.034,1.689c0.307,0.475,0.769,0.817,1.185,1.189
		c0.359,0.319,0.737,0.666,0.881,1.141c0.763-0.835,1.486-1.706,2.275-2.521c0.552-0.552,1.175-1.055,1.57-1.741
		c0.288-0.487,0.411-1.072,0.328-1.633c-0.007-0.23-0.188-0.392-0.333-0.548C129.667,65.484,129.306,65.351,128.981,65.472
		L128.981,65.472z"/>
	<path fill-rule="evenodd" clip-rule="evenodd" fill="#029999" d="M103.465,60.752c1.103-0.086,2.141-0.542,3.246-0.601
		c0.477-0.02,0.975-0.01,1.425,0.166c0.622,0.293,1.16,0.749,1.591,1.283c0.571,0.682,1.002,1.484,1.663,2.09
		c0.191,0.175,0.291,0.428,0.278,0.688c-0.369,0.053-0.766,0.067-1.083,0.286c-0.439,0.291-0.634,0.804-0.966,1.196
		c-0.612,0.707-0.732,1.683-1.227,2.46c-0.52,0.843-1.509,1.158-2.273,1.715c0.479,1.218,0.562,2.534,0.767,3.813
		c0.151,1.016,0.516,1.979,0.815,2.957c0.452,1.346,0.868,2.715,1.517,3.984c0.166,0.266,0.321,0.63,0.657,0.705
		c0.65-0.056,1.304,0.054,1.949-0.05c0.408-0.06,0.708-0.378,1.099-0.486c0.171-0.056,0.343,0.014,0.499,0.092
		c0.023,0.232-0.098,0.457-0.305,0.565c-0.505,0.281-1.097,0.316-1.656,0.401c-1.196,0.172-2.383,0.506-3.601,0.452
		c-0.728-0.032-1.546-0.248-1.951-0.907c-0.218-0.308-0.445-0.612-0.631-0.941c-0.179-0.32-0.173-0.698-0.269-1.045
		c-0.478-1.429-0.641-2.949-1.2-4.353c-0.383-0.94-0.255-1.971-0.338-2.959c-0.052-0.5-0.096-1.024-0.339-1.474
		c-0.138-0.109-0.336-0.043-0.492-0.019c-0.373,0.081-0.382,0.547-0.452,0.848c-0.155,1.65-0.421,3.297-0.408,4.958
		c0.233,0.4,0.796,0.295,1.119,0.576c0.148,0.194-0.049,0.518-0.293,0.469c-0.577-0.044-1.1-0.333-1.667-0.423
		c-0.529-0.113-1.062,0.106-1.592,0.005c-0.378-0.07-0.752-0.193-1.142-0.165c-0.431,0-0.875,0.092-1.296-0.024
		c-0.255-0.06-0.357-0.426-0.167-0.599c0.25-0.105,0.489,0.119,0.739,0.108c0.406-0.254,0.629-0.71,0.734-1.164
		c0.182-0.784,0.142-1.598,0.258-2.393c0.171-1.098,0.246-2.21,0.444-3.304c0.116-0.76,0.276-1.53,0.186-2.301
		c-0.147-0.607,0.051-1.221,0.184-1.812c0.297-1.22,0.625-2.492,0.367-3.75c-0.066-0.473-0.518-0.767-0.943-0.888
		c-0.12-0.024-0.177-0.163-0.174-0.27c0.033-0.104,0.155-0.099,0.242-0.112c1.043-0.119,2.094-0.028,3.133,0.101
		C102.429,60.69,102.944,60.799,103.465,60.752L103.465,60.752z M102.964,61.94c0.021,0.771,0.018,1.544-0.033,2.314
		c-0.111,1.835-0.472,3.645-0.535,5.482c0.757-0.003,1.545-0.18,2.144-0.666c0.489-0.39,0.836-0.927,1.094-1.486
		c0.643-1.402,0.854-2.97,1.596-4.332C106.057,62.282,104.488,61.732,102.964,61.94L102.964,61.94z"/>
	<path fill-rule="evenodd" clip-rule="evenodd" fill="#029999" d="M97.093,60.25c0.129-0.014,0.266-0.03,0.379,0.05
		c-0.293,1.353-1.118,2.522-1.388,3.882c-0.12,0.469-0.194,1.06-0.665,1.315c-0.529,0.217-1.119,0.164-1.679,0.161
		c-1.609-0.014-3.203-0.272-4.806-0.382c0.042,1.38,0.218,2.762,0.072,4.143c0.847-0.231,1.537-0.813,2.355-1.108
		c0.433-0.164,0.9-0.241,1.36-0.194c0.707,0.054,1.358,0.434,1.842,0.939c0.241,0.27,0.488,0.591,0.479,0.972
		c0.01,0.335-0.024,0.706-0.272,0.958c-0.357,0.364-0.862,0.562-1.165,0.985c-0.235,0.299-0.505,0.713-0.943,0.635
		c-0.053-0.382,0.208-0.71,0.47-0.953c0.328-0.298,0.535-0.716,0.571-1.158c-0.891,0.052-1.68,0.504-2.483,0.842
		c-0.745,0.312-1.449,0.705-2.151,1.1c-0.019,1.032,0.081,2.061,0.181,3.087c1.223,0.339,2.506,0.265,3.757,0.391
		c0.417,0.055,0.917,0.249,1.277-0.069c0.42-0.43,0.424-1.086,0.738-1.576c0.119-0.208,0.511-0.18,0.538,0.083
		c0.026,0.347-0.127,0.674-0.268,0.982c-0.301,0.535-0.201,1.172-0.195,1.759c0.001,0.424,0.05,0.914-0.241,1.263
		c-0.305,0.21-0.685,0.29-1.049,0.276c-0.54-0.023-1.051-0.214-1.579-0.307c-0.599-0.11-1.216-0.024-1.812-0.154
		c-1.208-0.252-2.406-0.738-3.66-0.597c-0.967,0.116-1.914,0.411-2.895,0.391c-0.397-0.014-0.847-0.092-1.109-0.419
		c-0.134-0.161-0.112-0.384-0.064-0.57c0.593,0.396,1.373,0.396,2.034,0.188c0.232-0.093,0.547-0.217,0.577-0.504
		c0.107-0.739,0.22-1.49,0.543-2.17c0.096-1.775,0.337-3.547,0.259-5.327c-0.019-0.502-0.269-0.955-0.32-1.451
		c-0.085-0.863,0.117-1.719,0.103-2.579c-0.009-0.465-0.113-0.956-0.427-1.314c-0.113-0.161-0.321-0.181-0.49-0.246
		c-0.511-0.168-1.099-0.324-1.397-0.818c1.184-0.247,2.348,0.305,3.536,0.201c1.152-0.135,2.307,0.142,3.459,0.013
		c0.696-0.075,1.392-0.185,2.094-0.17c0.801-0.012,1.653,0.102,2.405-0.248c0.457-0.198,0.686-0.663,0.975-1.036
		C96.355,61.063,96.865,60.767,97.093,60.25L97.093,60.25z"/>
	<path fill-rule="evenodd" clip-rule="evenodd" fill="#029999" d="M65.1,60.716c-0.106-0.284,0.347-0.543,0.536-0.307
		c0.109,0.237,0.191,0.51,0.431,0.655c0.448,0.343,1.035,0.302,1.563,0.369c1.071,0.152,2.099,0.516,3.173,0.642
		c1.875,0.224,3.755-0.23,5.631-0.024c0.81,0.08,1.543,0.459,2.323,0.666c0.422,0.123,0.881,0.21,1.221,0.51
		c0.528,0.455,0.819,1.106,1.205,1.675c0.667,0.955,1.229,1.984,1.931,2.918c0.439,0.536,1.004,0.969,1.39,1.553
		c0.109,0.148,0.12,0.358,0.003,0.507c-0.19,0.242-0.482,0.378-0.669,0.626c-0.852,1.055-1.406,2.306-2.105,3.458
		c-0.619,1.009-0.826,2.214-1.484,3.2c-0.177,0.309-0.548,0.363-0.829,0.537c-0.572,0.323-1.117,0.716-1.748,0.927
		c-0.769,0.278-1.598,0.205-2.4,0.22c-1.948,0.041-3.845,0.534-5.759,0.853c-0.477,0.078-0.965,0.227-1.447,0.12
		c-0.325-0.068-0.512-0.413-0.468-0.729c0.521-0.091,1.051,0.122,1.572-0.018c0.417-0.084,0.732-0.445,0.811-0.854
		c0.195-0.941,0.131-1.909,0.102-2.861c-0.007-1.67,0.033-3.343-0.128-5.008c-0.071-1.061-0.345-2.092-0.455-3.148
		c-0.096-1.146-0.145-2.296-0.211-3.444c-1.007-0.691-2.166-1.119-3.175-1.803C65.677,61.65,65.236,61.259,65.1,60.716L65.1,60.716z
		 M73.41,64.182c-0.098,0.841,0,1.689,0.074,2.527c0.036,0.917,0,1.846,0.186,2.75c0.182,0.809-0.031,1.629-0.103,2.435
		c-0.127,1.812-0.243,3.632-0.111,5.449c0.839-0.011,1.647-0.407,2.188-1.042c0.625-0.7,1.021-1.562,1.585-2.31
		c0.62-0.816,1.467-1.456,1.95-2.374c0.382-0.659,0.888-1.233,1.373-1.816c-0.355-0.825-0.734-1.644-1.197-2.416
		c-0.552-0.926-1.273-1.776-2.202-2.344c-1.093-0.686-2.406-0.941-3.68-0.95C73.457,64.114,73.426,64.159,73.41,64.182L73.41,64.182
		z"/>
	<path fill-rule="evenodd" clip-rule="evenodd" fill="#029999" d="M44.722,62.631c0.402,0.012,0.64,0.393,0.848,0.689
		c0.643,1.089,1.771,1.737,2.665,2.592c0.868,0.845,1.812,1.68,2.312,2.81c0.538,1.199,0.534,2.553,0.397,3.836
		c-0.089,0.838-0.193,1.674-0.211,2.519c-0.074,1.51-0.338,3.067-1.163,4.363c-0.69,1.106-1.701,1.96-2.745,2.72
		c-0.352,0.241-0.65,0.552-0.927,0.875c-0.247,0.306-0.506,0.625-0.588,1.02c-0.07,0.235-0.093,0.528-0.315,0.679
		c-0.159,0.116-0.367,0.039-0.51-0.064c-0.448-0.317-0.767-0.774-1.172-1.139c-1.427-1.322-3.187-2.215-4.646-3.497
		c-0.354-0.317-0.723-0.633-0.979-1.038c-0.454-0.702-0.645-1.532-0.837-2.336c-0.321-1.406-0.696-2.81-0.826-4.25
		c-0.109-1.201,0.091-2.458,0.727-3.497c0.297-0.499,0.679-0.938,1.088-1.348c0.676-0.696,1.314-1.426,1.976-2.135
		c0.316-0.312,0.612-0.663,1.012-0.872c1.199-0.604,2.442-1.126,3.589-1.827C44.508,62.674,44.611,62.636,44.722,62.631
		L44.722,62.631z M42.553,65.5c-0.464,0.165-0.843,0.493-1.231,0.786c-0.404,0.334-0.869,0.577-1.316,0.846
		c-0.4,0.248-0.842,0.542-0.963,1.027c-0.164,0.688,0.024,1.39,0.083,2.079c0.103,0.788,0.011,1.585,0.076,2.376
		c0.011,0.301,0.164,0.568,0.212,0.862c0.108,1.062-0.039,2.137,0.121,3.194c0.124,0.604,0.539,1.103,0.979,1.514
		c1.045,0.924,2.378,1.431,3.466,2.296c0.268,0.195,0.389,0.517,0.604,0.76c0.152,0.177,0.433,0.269,0.64,0.128
		c0.401-0.269,0.674-0.681,0.954-1.063c0.6-0.876,1.221-1.828,1.264-2.921c0.057-1.156-0.145-2.312-0.024-3.467
		c0.087-0.938,0.252-1.871,0.284-2.814c0.015-0.604-0.022-1.23-0.271-1.792c-0.239-0.541-0.571-1.036-0.941-1.497
		c-0.751-0.941-1.774-1.635-2.863-2.129C43.29,65.551,42.919,65.356,42.553,65.5L42.553,65.5z"/>
</g>
</svg>
